/* XPM */
static char * door0_xpm[] = {
"32 32 8 1",
" 	c #EDE98D",
".	c #D6D057",
"+	c #525026",
"@	c #D6D003",
"#	c #BEB95B",
"$	c #F6F3B6",
"%	c #C2B280",
"&	c #A89A6B",
"   .+@@@@@@@@@@.#@@@@@@@@@@+  $ ",
"  $.+@%%%&%&%%&.#%&%&%&%&%@+ $  ",
"....+@%&%&%&%%%.#%&%&%%%%%@+....",
"+++++@%&%%%&%&%.#%%%&%&%%%@+++++",
"$  .+@%%%&%%%%%.#&%%%%&%&%@+  $ ",
"  $.+@%%%&%%&%%.#&%&%%%%&%@+ $  ",
"....+@%%%%%%&%%.#%%&%&%%&%@+....",
"+++++@%&%&%%%%&.#%%&%&%%%%@+++++",
"   .+@%&%&%%&%&.#&%%%%%%%%@+ $  ",
"  $.+@%&%%%%&%%.#&%%&%%%&%@+$   ",
"....+@%%%%&%&%%.#%%%%%&%&%@+....",
"+++++@&%%%&%%%%.#%%&%%&%&%@+++++",
"$  .+@&%&%%%%%%.#&%&%%%%%%@+   $",
"  $.+@%%&%%%%&%.#&%&%&%%%&@+  $ ",
"....+@&%%%%&%&%.#&%%%&%&%&@+....",
"+++++@&%%&%&%%%.#%%%%&%&%%@+++++",
"   .+@&%%&%%%%%.#%%&%%%&%&@+  $ ",
"  $.+@%%%%%&$ %.#&$ %%%%%&@+ $  ",
"....+@&%&%%& .%.#& .%&%&%&@+....",
"+++++@&%&%%%%%%.#%%%%&%%%%@+++++",
"$  .+@%%%%%&%&%.#%%%%&%%&%@+   $",
"  $.+@%&%&%&%%%.#%%&%%%%&%@+  $ ",
"....+@%&%&%%%%&.#%%&%%%%&%@+....",
"+++++@%&%%%&%%&.#%%%%&%%%%@+++++",
"   .+@%%%&%%%%%.#%&%%&%&%&@+ $  ",
"  $.+@%&%&%&%%%.#%&%%%%&%&@+$   ",
"....+@%%%&%&%&%.#%%%&%%%%&@+....",
"+++++@%&%%%&%&%.#%&%&%&%%%@+++++",
"$  .+@%&%%%%%&%.#%&%&%&%&%@+  $ ",
"  $.+@%&%%&%%%%.#%&%%%&%&%@+ $  ",
"....+@%%%%&%&%%.#%%%&%%%&%@+....",
"+++++@@@@@@@@@@.#@@@@@@@@@@+++++"};
