/* XPM */
static char * doorx_xpm[] = {
"32 32 5 1",
" 	c #EDE98D",
".	c #D6D057",
"+	c #525026",
"@	c #000000",
"#	c #F6F3B6",
"   .+@@@@@@@@@@@@@@@@@@@@@@+  # ",
"  #.+@@@@@@@@@@@@@@@@@@@@@@+ #  ",
"....+@@@@@@@@@@@@@@@@@@@@@@+....",
"+++++@@@@@@@@@@@@@@@@@@@@@@+++++",
"#  .+@@@@@@@@@@@@@@@@@@@@@@+  # ",
"  #.+@@@@@@@@@@@@@@@@@@@@@@+ #  ",
"....+@@@@@@@@@@@@@@@@@@@@@@+....",
"+++++@@@@@@@@@@@@@@@@@@@@@@+++++",
"   .+@@@@@@@@@@@@@@@@@@@@@@+ #  ",
"  #.+@@@@@@@@@@@@@@@@@@@@@@+#   ",
"....+@@@@@@@@@@@@@@@@@@@@@@+....",
"+++++@@@@@@@@@@@@@@@@@@@@@@+++++",
"#  .+@@@@@@@@@@@@@@@@@@@@@@+   #",
"  #.+@@@@@@@@@@@@@@@@@@@@@@+  # ",
"....+@@@@@@@@@@@@@@@@@@@@@@+....",
"+++++@@@@@@@@@@@@@@@@@@@@@@+++++",
"   .+@@@@@@@@@@@@@@@@@@@@@@+  # ",
"  #.+@@@@@@@@@@@@@@@@@@@@@@+ #  ",
"....+@@@@@@@@@@@@@@@@@@@@@@+....",
"+++++@@@@@@@@@@@@@@@@@@@@@@+++++",
"#  .+@@@@@@@@@@@@@@@@@@@@@@+   #",
"  #.+@@@@@@@@@@@@@@@@@@@@@@+  # ",
"....+@@@@@@@@@@@@@@@@@@@@@@+....",
"+++++@@@@@@@@@@@@@@@@@@@@@@+++++",
"   .+@@@@@@@@@@@@@@@@@@@@@@+ #  ",
"  #.+@@@@@@@@@@@@@@@@@@@@@@+#   ",
"....+@@@@@@@@@@@@@@@@@@@@@@+....",
"+++++@@@@@@@@@@@@@@@@@@@@@@+++++",
"#  .+@@@@@@@@@@@@@@@@@@@@@@+  # ",
"  #.+@@@@@@@@@@@@@@@@@@@@@@+ #  ",
"....+@@@@@@@@@@@@@@@@@@@@@@+....",
"+++++@@@@@@@@@@@@@@@@@@@@@@+++++"};
