/* XPM */
static char * door10_xpm[] = {
"32 32 6 1",
" 	c #EDE98D",
".	c #D6D057",
"+	c #525026",
"@	c #000000",
"#	c #BEB95B",
"$	c #F6F3B6",
"   .+.@@@@@@@@@@@@@@@@@@@@#+  $ ",
"  $.+.@@@@@@@@@@@@@@@@@@@@#+ $  ",
"....+.@@@@@@@@@@@@@@@@@@@@#+....",
"+++++.@@@@@@@@@@@@@@@@@@@@#+++++",
"$  .+.@@@@@@@@@@@@@@@@@@@@#+  $ ",
"  $.+.@@@@@@@@@@@@@@@@@@@@#+ $  ",
"....+.@@@@@@@@@@@@@@@@@@@@#+....",
"+++++.@@@@@@@@@@@@@@@@@@@@#+++++",
"   .+.@@@@@@@@@@@@@@@@@@@@#+ $  ",
"  $.+.@@@@@@@@@@@@@@@@@@@@#+$   ",
"....+.@@@@@@@@@@@@@@@@@@@@#+....",
"+++++.@@@@@@@@@@@@@@@@@@@@#+++++",
"$  .+.@@@@@@@@@@@@@@@@@@@@#+   $",
"  $.+.@@@@@@@@@@@@@@@@@@@@#+  $ ",
"....+.@@@@@@@@@@@@@@@@@@@@#+....",
"+++++.@@@@@@@@@@@@@@@@@@@@#+++++",
"   .+.@@@@@@@@@@@@@@@@@@@@#+  $ ",
"  $.+.@@@@@@@@@@@@@@@@@@@@#+ $  ",
"....+.@@@@@@@@@@@@@@@@@@@@#+....",
"+++++.@@@@@@@@@@@@@@@@@@@@#+++++",
"$  .+.@@@@@@@@@@@@@@@@@@@@#+   $",
"  $.+.@@@@@@@@@@@@@@@@@@@@#+  $ ",
"....+.@@@@@@@@@@@@@@@@@@@@#+....",
"+++++.@@@@@@@@@@@@@@@@@@@@#+++++",
"   .+.@@@@@@@@@@@@@@@@@@@@#+ $  ",
"  $.+.@@@@@@@@@@@@@@@@@@@@#+$   ",
"....+.@@@@@@@@@@@@@@@@@@@@#+....",
"+++++.@@@@@@@@@@@@@@@@@@@@#+++++",
"$  .+.@@@@@@@@@@@@@@@@@@@@#+  $ ",
"  $.+.@@@@@@@@@@@@@@@@@@@@#+ $  ",
"....+.@@@@@@@@@@@@@@@@@@@@#+....",
"+++++.@@@@@@@@@@@@@@@@@@@@#+++++"};
