/* XPM */
static char * brown_wall_xpm[] = {
"32 32 2 1",
" 	c #3F362E",
".	c #362E27",
" ......... . ......... . .......",
"................................",
"..... . . ......................",
"................................",
" ................. . . . . . ...",
"................................",
"....... . ..... ................",
"................................",
".... ..................... .....",
"................................",
"............................... ",
"................................",
".............. . . ......... . .",
"................................",
"........................... ....",
"................................",
" ... . . .......................",
"................................",
". . ....................... . . ",
"................................",
"........................ . . ...",
"................................",
"................. . . . ........",
"................................",
" ......... . . . ...............",
"................................",
"..... ..........................",
"................................",
".............................. .",
"................................",
". . . ........... ......... . ..",
"................................"};
