/* XPM */
static char * grey_brick_xpm[] = {
"32 32 4 1",
" 	c #696161",
".	c #969090",
"+	c #807A7A",
"@	c #000000",
"  .   +@   .  +@  .   +@  .   +@",
" .   .+@  .  .+@ .   .+@ .   .+@",
"+++++++@+++++++@+++++++@+++++++@",
"@@@@@@@@@@@@@@@@@@@@@@@@@@@@@@@@",
"   .  +@  .   +@   .  +@  .   +@",
"  .  .+@ .   .+@  .  .+@ .   .+@",
"+++++++@+++++++@+++++++@+++++++@",
"@@@@@@@@@@@@@@@@@@@@@@@@@@@@@@@@",
" .    +@   .  +@ .    +@ .    +@",
".    .+@  .  .+@.    .+@.    .+@",
"+++++++@+++++++@+++++++@+++++++@",
"@@@@@@@@@@@@@@@@@@@@@@@@@@@@@@@@",
"   .  +@ .    +@  .   +@   .  +@",
"  .  .+@.    .+@ .   .+@  .   +@",
"+++++++@+++++++@+++++++@+++++++@",
"@@@@@@@@@@@@@@@@@@@@@@@@@@@@@@@@",
"  .   +@   .  +@   .  +@  .   +@",
" .   .+@  .  .+@  .  .+@ .   .+@",
"+++++++@+++++++@+++++++@+++++++@",
"@@@@@@@@@@@@@@@@@@@@@@@@@@@@@@@@",
"   .  +@ .    +@  .   +@   .  +@",
"  .  .+@.    .+@ .   .+@  .  .+@",
"+++++++@+++++++@+++++++@+++++++@",
"@@@@@@@@@@@@@@@@@@@@@@@@@@@@@@@@",
" .    +@   .  +@   .  +@ .    +@",
".    .+@  .  .+@  .  .+@.    .+@",
"+++++++@+++++++@+++++++@+++++++@",
"@@@@@@@@@@@@@@@@@@@@@@@@@@@@@@@@",
"   .  +@  .   +@ .    +@  .   +@",
"  .  .+@ .   .+@.    .+@ .   .+@",
"+++++++@+++++++@+++++++@+++++++@",
"@@@@@@@@@@@@@@@@@@@@@@@@@@@@@@@@"};
