/* XPM */
static char * e_xpm[] = {
"32 32 6 1",
" 	c #FF2600",
".	c #FFFFFF",
"+	c #3EFF00",
"@	c #000000",
"#	c #002FFF",
"$	c #FF00EB",
" ..............................+",
"................................",
"................................",
"................................",
"....................@@@@........",
"..............@@@@@@............",
"......@@@@@@@@@..@..............",
".................@@.............",
"..................@.............",
"..................@.............",
"...................@............",
"...................@............",
"...................@............",
"...................@............",
"...................@............",
"...................@@...........",
"....................@...........",
"....................@...........",
"....................@...........",
"...........@........@...........",
"...........@........@...........",
"...........@........@...........",
"...........@........@...........",
"...........@........@...........",
"............@.......@...........",
".............@@@@@@@@...........",
"................................",
"................................",
"................................",
"................................",
"................................",
"#..............................$"};
