/* XPM */
static char * light_gray_wall_xpm[] = {
"32 32 2 1",
" 	c #DAFAF9",
".	c #F2F2F2",
" . ..... . . ....... ....... . .",
"................................",
". ................. . ... . ... ",
"........ .......................",
"................................",
"................................",
". ..... ... . ..... . ... ......",
"................................",
".... ......................... .",
".......... .....................",
"........................... ... ",
"..................... ..........",
"...... ....... ............. ...",
"................................",
"......... ..... ................",
"........................ .......",
".. ......... ..... .............",
"................................",
"..... . ..................... ..",
"................................",
"................ ....... .......",
"................................",
"......... ........... . ........",
"................................",
".. ......................... ...",
"................................",
"............... ............. ..",
"................................",
"........ . . ......... .........",
"................................",
"..... . ......... ........... ..",
"................... ............"};
